<svg width="50" height="50" viewBox="0 0 50 50" fill="none" xmlns="http://www.w3.org/2000/svg">
<g clip-path="url(#clip0_148_8463)">
<path d="M24.9 18.13C25.46 17.67 25.83 17.05 26.27 16.5C30.52 11.13 34.76 5.75 39 0.37C39.09 0.25 39.17 0.13 39.25 0C42.83 0 46.41 0 50 0C49.24 1.14 48.35 2.17 47.5 3.24C41.88 10.38 36.25 17.51 30.63 24.64C30.52 24.78 30.35 24.89 30.4 25.11C30.34 25.18 30.28 25.18 30.2 25.14C28.69 23.1 27.07 21.15 25.51 19.15C25.29 18.87 25.08 18.6 24.86 18.33C24.83 18.26 24.84 18.19 24.9 18.13Z" fill="#C91F62"/>
<path d="M24.98 31.8399C23.58 33.5999 22.17 35.3599 20.78 37.1299C17.5 41.2799 14.22 45.4399 10.95 49.5999C10.74 49.8699 10.52 49.9999 10.16 49.9999C6.92999 49.9799 3.69999 49.9999 0.46999 49.9899C0.30999 49.9899 0.0899895 50.0799 0.0199895 49.9099C-0.0500105 49.7399 0.15999 49.6299 0.25999 49.5099C6.58999 41.4699 12.93 33.4399 19.26 25.4099C19.37 25.2699 19.47 25.1099 19.57 24.9599C19.6 24.9199 19.65 24.9099 19.7 24.9299C21.47 27.1999 23.3 29.4299 25.03 31.7299C25.03 31.7799 25.03 31.8199 24.98 31.8599V31.8399Z" fill="#C91F62"/>
<path d="M24.98 31.8399C24.98 31.8399 24.98 31.7699 24.99 31.7399C24.92 31.4999 25.11 31.3699 25.23 31.2199C26.78 29.2799 28.3 27.3099 29.86 25.3699C29.96 25.2499 30.02 25.0599 30.24 25.0999C30.3 25.0999 30.35 25.0999 30.41 25.0999C32.51 27.7499 41.84 39.5699 41.92 39.6599C41.66 39.6599 34.94 39.7299 31.68 39.7399C31.35 39.7399 31.14 39.6399 30.93 39.3799C28.96 36.8599 26.98 34.3399 25 31.8299L24.98 31.8399Z" fill="#841342"/>
<path d="M19.65 24.9299H19.61L19.57 24.9399C18.58 23.83 17.71 22.6399 16.79 21.4799C13.94 17.8899 11.1 14.2799 8.26002 10.6799C8.18002 10.5799 8.11002 10.4699 8.02002 10.3499C8.19002 10.2199 8.36002 10.2699 8.52002 10.2699C11.76 10.2699 15.01 10.2699 18.25 10.2699C18.59 10.2699 18.79 10.3699 19 10.6399C20.96 13.1499 22.94 15.6499 24.91 18.1499C24.91 18.1999 24.91 18.2499 24.91 18.2999C25.01 18.4799 24.86 18.58 24.77 18.6899C23.22 20.66 21.67 22.6199 20.12 24.5799C20 24.7399 19.88 24.91 19.66 24.9399L19.65 24.9299Z" fill="#841342"/>
</g>
<defs>
<clipPath id="clip0_148_8463">
<rect width="50" height="50" fill="white"/>
</clipPath>
</defs>
</svg>
